# xmcd
#
# Track frame offsets:
#	183
#	18668
#	41570
#	56740
#	72930
#	86483
#	106663
#	120615
#	135780
#	151953
#	168018
#	186073
#	198453
#
# Disc length: 2904 seconds
#
# Revision: 0
# Processed by: cddbd v1.5.2PL0 Copyright (c) Steve Scherf et al.
# Submitted via: audiograbber 1.83.01
#
DISCID=a00b560d
DTITLE=First Class Blues Band - The First Class Blues Band Proudly Presents Mr.
DTITLE=Frank Biner
DYEAR=1994
DGENRE=Blues
TTITLE0=You're A Tease, Baby
TTITLE1=Pack My Suitcase
TTITLE2=Don't Let Me See You Cry
TTITLE3=(I'm Your) Teddy Bear
TTITLE4=Groove Me
TTITLE5=Seven Years
TTITLE6=I Know She Didn't Want Me
TTITLE7=Ooh Wee
TTITLE8=Frankie's Shuffle
TTITLE9=I'm Blue
TTITLE10=Personal Manager
TTITLE11=You Don't Know Me That Well
TTITLE12=(Gonna Have A) Funky Good Time
EXTD=
EXTT0=Frank Biner
EXTT1=Frank Biner
EXTT2=Frank Biner
EXTT3=Frank Biner
EXTT4=Frank Biner
EXTT5=Frank Biner
EXTT6=Frank Biner
EXTT7=Frank Biner
EXTT8=Frank Biner
EXTT9=Frank Biner
EXTT10=Frank Biner
EXTT11=
EXTT12=Frank Biner
PLAYORDER=
